<svg width="200" height="199" viewBox="0 0 200 199" fill="none" xmlns="http://www.w3.org/2000/svg">
<mask id="mask0_2_106" style="mask-type:luminance" maskUnits="userSpaceOnUse" x="0" y="0" width="200" height="198">
<path d="M200 0H0V198H200V0Z" fill="white"/>
</mask>
<g mask="url(#mask0_2_106)">
<path d="M172.138 23H30.2328C22.974 23 17.09 28.8252 17.09 36.0114V140.956C17.09 148.142 22.974 153.968 30.2328 153.968H172.138C179.396 153.968 185.48 148.934 185.48 141.748V36.8034C185.48 29.6172 179.396 23 172.138 23Z" fill="#1E4584"/>
<path d="M173.683 55.4847H29.8492C25.4323 55.4847 21.8519 51.9401 21.8519 47.5674V38.0757C21.8519 33.6473 25.4783 30.0568 29.952 30.0568H173.58C178.054 30.0568 181.68 33.6473 181.68 38.0757V47.5674C181.68 51.9401 178.1 55.4847 173.683 55.4847Z" fill="url(#paint0_linear_2_106)"/>
<path d="M37.0455 50.9529C32.4883 50.9529 28.7808 47.2828 28.7808 42.7712C28.7808 38.2595 32.4883 34.5886 37.0455 34.5886C41.6027 34.5886 45.3103 38.2595 45.3103 42.7712C45.3103 47.2828 41.6027 50.9529 37.0455 50.9529ZM37.0455 35.7766C33.1499 35.7766 29.9808 38.9145 29.9808 42.7712C29.9808 46.6274 33.1499 49.7649 37.0455 49.7649C40.9411 49.7649 44.1103 46.6274 44.1103 42.7712C44.1103 38.9145 40.9411 35.7766 37.0455 35.7766Z" fill="white"/>
<path d="M37.8548 42.7708L40.4872 40.1647C40.7108 39.9437 40.7108 39.585 40.4872 39.3636C40.2636 39.1426 39.9012 39.1426 39.678 39.3636L37.046 41.9701L34.4128 39.3636C34.1896 39.1426 33.8276 39.1426 33.604 39.3636C33.3804 39.585 33.3804 39.9437 33.604 40.1647L36.2364 42.7708L33.604 45.3769C33.3804 45.5978 33.3804 45.9566 33.604 46.178C33.7156 46.2884 33.8624 46.3435 34.0084 46.3435C34.1548 46.3435 34.3012 46.2884 34.4128 46.178L37.046 43.5715L39.678 46.178C39.7896 46.2884 39.936 46.3435 40.0824 46.3435C40.2288 46.3435 40.3756 46.2884 40.4872 46.178C40.7108 45.9566 40.7108 45.5978 40.4872 45.3769L37.8548 42.7708Z" fill="white"/>
<path d="M54.3419 45.3052L52.8259 42.6544H52.1767V45.3052H50.7983V38.5027H53.3775C53.9091 38.5027 54.3619 38.595 54.7359 38.7803C55.1099 38.9656 55.3907 39.2159 55.5775 39.5311C55.7647 39.8463 55.8583 40.1984 55.8583 40.588C55.8583 41.0363 55.7267 41.4414 55.4643 41.8018C55.2019 42.1621 54.8107 42.4108 54.2927 42.547L55.9367 45.3052H54.3419ZM52.1767 41.6307H53.3283C53.7023 41.6307 53.9807 41.542 54.1647 41.363C54.3483 41.1848 54.4403 40.9357 54.4403 40.6173C54.4403 40.3053 54.3483 40.0637 54.1647 39.8915C53.9807 39.7196 53.7023 39.6333 53.3283 39.6333H52.1767V41.6307Z" fill="white"/>
<path d="M62.138 43.0143H58.1511C58.1839 43.404 58.3219 43.7097 58.5647 43.9303C58.8075 44.1513 59.1064 44.2617 59.4604 44.2617C59.9724 44.2617 60.3368 44.0447 60.5532 43.6091H62.04C61.8824 44.1291 61.58 44.556 61.134 44.8902C60.6876 45.2252 60.14 45.3923 59.49 45.3923C58.9651 45.3923 58.4939 45.2767 58.0775 45.0462C57.6607 44.8157 57.3359 44.4894 57.1027 44.0669C56.8699 43.6448 56.7535 43.1573 56.7535 42.6049C56.7535 42.0465 56.8683 41.5559 57.0979 41.1334C57.3275 40.7112 57.6495 40.3869 58.0627 40.1596C58.4759 39.9319 58.9519 39.8182 59.49 39.8182C60.0084 39.8182 60.4728 39.9287 60.8832 40.1493C61.2928 40.3703 61.6112 40.6839 61.838 41.0898C62.0644 41.4957 62.1772 41.9618 62.1772 42.4881C62.1772 42.6833 62.1644 42.8583 62.138 43.0143ZM60.7504 42.0984C60.744 41.7475 60.6156 41.4664 60.3664 41.2553C60.1168 41.0443 59.812 40.9385 59.4512 40.9385C59.1096 40.9385 58.8227 41.0411 58.5899 41.2458C58.3567 41.4502 58.2139 41.7345 58.1615 42.0984H60.7504Z" fill="white"/>
<path d="M64.5596 46.1911C64.5596 46.7886 64.4104 47.2199 64.1116 47.4828C63.8132 47.7458 63.3848 47.8773 62.8272 47.8773H62.2168V46.7178H62.6104C62.8204 46.7178 62.968 46.6774 63.0536 46.5962C63.1388 46.5146 63.1816 46.3827 63.1816 46.201V39.9058H64.5596V46.1911ZM63.2652 39.0334C63.1044 38.8809 63.024 38.6909 63.024 38.4636C63.024 38.2359 63.1044 38.0458 63.2652 37.8933C63.426 37.7405 63.6312 37.6644 63.8804 37.6644C64.1232 37.6644 64.3236 37.7405 64.4808 37.8933C64.6384 38.0458 64.7172 38.2359 64.7172 38.4636C64.7172 38.6909 64.6384 38.8809 64.4808 39.0334C64.3236 39.1863 64.1232 39.2623 63.8804 39.2623C63.6312 39.2623 63.426 39.1863 63.2652 39.0334Z" fill="white"/>
<path d="M70.9478 43.0143H66.961C66.9938 43.404 67.1318 43.7097 67.3746 43.9303C67.6174 44.1513 67.9162 44.2617 68.2702 44.2617C68.7822 44.2617 69.1466 44.0447 69.363 43.6091H70.8498C70.6922 44.1291 70.3898 44.556 69.9438 44.8902C69.4974 45.2252 68.9498 45.3923 68.2998 45.3923C67.775 45.3923 67.3038 45.2767 66.8874 45.0462C66.4706 44.8157 66.1458 44.4894 65.9126 44.0669C65.6798 43.6448 65.5634 43.1573 65.5634 42.6049C65.5634 42.0465 65.6782 41.5559 65.9078 41.1334C66.1374 40.7112 66.4594 40.3869 66.8726 40.1596C67.2858 39.9319 67.7618 39.8182 68.2998 39.8182C68.8182 39.8182 69.2826 39.9287 69.693 40.1493C70.1026 40.3703 70.421 40.6839 70.6478 41.0898C70.8742 41.4957 70.987 41.9618 70.987 42.4881C70.987 42.6833 70.9742 42.8583 70.9478 43.0143ZM69.5602 42.0984C69.5538 41.7475 69.4254 41.4664 69.1762 41.2553C68.9266 41.0443 68.6218 40.9385 68.261 40.9385C67.9194 40.9385 67.6326 41.0411 67.3998 41.2458C67.1666 41.4502 67.0238 41.7345 66.9714 42.0984H69.5602Z" fill="white"/>
<path d="M71.9817 41.1385C72.2113 40.7195 72.5297 40.3948 72.9365 40.1639C73.3433 39.9335 73.8093 39.8182 74.3345 39.8182C75.0101 39.8182 75.5697 39.9853 76.0129 40.32C76.4557 40.6546 76.7525 41.1238 76.9037 41.7281H75.4173C75.3385 41.4941 75.2057 41.3108 75.0185 41.1777C74.8317 41.0446 74.6001 40.9777 74.3245 40.9777C73.9309 40.9777 73.6189 41.1191 73.3893 41.4018C73.1597 41.6842 73.0449 42.0857 73.0449 42.6053C73.0449 43.1185 73.1597 43.5165 73.3893 43.7988C73.6189 44.0816 73.9309 44.2229 74.3245 44.2229C74.8821 44.2229 75.2465 43.9762 75.4173 43.482H76.9037C76.7525 44.0669 76.4541 44.5314 76.0077 44.8759C75.5613 45.2205 75.0037 45.3923 74.3345 45.3923C73.8093 45.3923 73.3433 45.2771 72.9365 45.0462C72.5297 44.8157 72.2113 44.491 71.9817 44.0717C71.7521 43.6527 71.6373 43.164 71.6373 42.6053C71.6373 42.0465 71.7521 41.5575 71.9817 41.1385Z" fill="white"/>
<path d="M79.5216 41.0264V43.638C79.5216 43.8202 79.5656 43.9521 79.6544 44.0333C79.7432 44.1144 79.8924 44.1548 80.1024 44.1548H80.742V45.3048H79.876C78.7144 45.3048 78.1336 44.7464 78.1336 43.6285V41.0264H77.484V39.9061H78.1336V38.5704H79.5216V39.9061H80.742V41.0264H79.5216Z" fill="white"/>
<path d="M86.7667 43.0143H82.7798C82.8126 43.404 82.9502 43.7097 83.193 43.9303C83.4362 44.1513 83.7346 44.2617 84.089 44.2617C84.601 44.2617 84.965 44.0447 85.1818 43.6091H86.6683C86.5107 44.1291 86.2087 44.556 85.7622 44.8902C85.3162 45.2252 84.7682 45.3923 84.1186 45.3923C83.5934 45.3923 83.1226 45.2767 82.7058 45.0462C82.289 44.8157 81.9642 44.4894 81.7314 44.0669C81.4982 43.6448 81.3818 43.1573 81.3818 42.6049C81.3818 42.0465 81.4966 41.5559 81.7266 41.1334C81.9562 40.7112 82.2778 40.3869 82.691 40.1596C83.1046 39.9319 83.5802 39.8182 84.1186 39.8182C84.637 39.8182 85.1014 39.9287 85.5114 40.1493C85.9215 40.3703 86.2399 40.6839 86.4663 41.0898C86.6927 41.4957 86.8059 41.9618 86.8059 42.4881C86.8059 42.6833 86.7927 42.8583 86.7667 43.0143ZM85.3786 42.0984C85.3718 41.7475 85.2438 41.4664 84.9946 41.2553C84.745 41.0443 84.4398 40.9385 84.079 40.9385C83.7378 40.9385 83.4506 41.0411 83.2178 41.2458C82.985 41.4502 82.8422 41.7345 82.7894 42.0984H85.3786Z" fill="white"/>
<path d="M87.7854 41.1341C88.005 40.7115 88.3054 40.3868 88.6862 40.1595C89.0666 39.9318 89.4894 39.8181 89.9554 39.8181C90.3098 39.8181 90.6482 39.8946 90.9698 40.047C91.2914 40.1999 91.547 40.403 91.7374 40.6561V38.0928H93.1354V45.3043H91.7374V44.5056C91.5666 44.7721 91.327 44.9867 91.019 45.1491C90.7102 45.3111 90.353 45.3926 89.9458 45.3926C89.4866 45.3926 89.0666 45.275 88.6862 45.0414C88.3054 44.8074 88.005 44.4783 87.7854 44.0526C87.5654 43.6269 87.4554 43.1378 87.4554 42.5854C87.4554 42.0397 87.5654 41.5562 87.7854 41.1341ZM91.5506 41.7522C91.419 41.515 91.2422 41.3332 91.019 41.2065C90.7958 41.0798 90.5566 41.0168 90.3002 41.0168C90.0442 41.0168 89.8082 41.0786 89.5918 41.2022C89.3754 41.3253 89.1994 41.5059 89.065 41.7431C88.9302 41.9803 88.863 42.2607 88.863 42.5854C88.863 42.9105 88.9302 43.1948 89.065 43.4384C89.1994 43.6823 89.3762 43.8692 89.5966 43.9987C89.8162 44.129 90.051 44.1936 90.3002 44.1936C90.5566 44.1936 90.7958 44.1306 91.019 44.0039C91.2422 43.8772 91.419 43.695 91.5506 43.4578C91.6818 43.2206 91.7474 42.9367 91.7474 42.6052C91.7474 42.2741 91.6818 41.9894 91.5506 41.7522Z" fill="white"/>
<path d="M173.493 44.3532C173.534 44.2565 173.534 44.1473 173.493 44.0506C173.472 44.0023 173.443 43.9584 173.406 43.9219L170.998 41.5372C170.841 41.3828 170.588 41.3828 170.432 41.5372C170.276 41.6921 170.276 41.9427 170.432 42.0972L172.158 43.8059H167.342C166.5 43.8059 165.815 43.1276 165.815 42.294V38.9557C165.815 38.7367 165.636 38.5597 165.415 38.5597C165.194 38.5597 165.015 38.7367 165.015 38.9557V42.294C165.015 43.5643 166.059 44.5979 167.342 44.5979H172.158L170.432 46.3066C170.276 46.4615 170.276 46.7121 170.432 46.8666C170.51 46.9438 170.613 46.9826 170.715 46.9826C170.818 46.9826 170.919 46.9438 170.998 46.8666L173.406 44.4823C173.443 44.4454 173.472 44.4019 173.493 44.3532Z" fill="white"/>
<path d="M173.683 69.4406H29.8492C25.4323 69.4406 21.8519 65.896 21.8519 61.5234V52.0317C21.8519 47.6032 25.4783 44.0127 29.952 44.0127H173.58C178.054 44.0127 181.68 47.6032 181.68 52.0317V61.5234C181.68 65.896 178.1 69.4406 173.683 69.4406Z" fill="url(#paint1_linear_2_106)"/>
<path d="M37.0455 64.9088C32.4883 64.9088 28.7808 61.2387 28.7808 56.7271C28.7808 52.2155 32.4883 48.5446 37.0455 48.5446C41.6027 48.5446 45.3103 52.2155 45.3103 56.7271C45.3103 61.2387 41.6027 64.9088 37.0455 64.9088ZM37.0455 49.7326C33.1499 49.7326 29.9808 52.8704 29.9808 56.7271C29.9808 60.5833 33.1499 63.7208 37.0455 63.7208C40.9411 63.7208 44.1103 60.5833 44.1103 56.7271C44.1103 52.8704 40.9411 49.7326 37.0455 49.7326Z" fill="white"/>
<path d="M35.916 60.4138C35.7488 60.4138 35.5888 60.3449 35.4752 60.2229L32.7644 57.3159C32.5396 57.0747 32.5548 56.6993 32.7984 56.4768C33.042 56.2542 33.422 56.2697 33.646 56.5104L35.882 58.9082L40.416 53.2636C40.622 53.007 41 52.9639 41.2588 53.1682C41.518 53.3722 41.5612 53.7464 41.3548 54.003L36.3856 60.1901C36.2764 60.3255 36.1132 60.4075 35.938 60.4138C35.9308 60.4142 35.9236 60.4138 35.916 60.4138Z" fill="white"/>
<path d="M50.9092 53.9095C51.2096 53.3884 51.6196 52.9825 52.1396 52.691C52.6596 52.4004 53.2428 52.2546 53.8888 52.2546C54.6448 52.2546 55.3068 52.4471 55.8756 52.8308C56.4436 53.2145 56.8412 53.7452 57.0672 54.4231H55.5072C55.352 54.1036 55.134 53.8632 54.8528 53.7032C54.572 53.5436 54.2472 53.464 53.8792 53.464C53.4848 53.464 53.1344 53.5551 52.8276 53.7373C52.5208 53.9194 52.282 54.1768 52.1108 54.5091C51.9396 54.8417 51.854 55.2318 51.854 55.6796C51.854 56.1208 51.9396 56.5097 52.1108 56.8455C52.282 57.1813 52.5208 57.4399 52.8276 57.622C53.1344 57.8046 53.4848 57.8957 53.8792 57.8957C54.2472 57.8957 54.572 57.8145 54.8528 57.6513C55.134 57.4882 55.352 57.2466 55.5072 56.9266H57.0672C56.8412 57.6113 56.4452 58.1436 55.88 58.5241C55.3148 58.9047 54.6508 59.0951 53.8888 59.0951C53.2428 59.0951 52.6596 58.9494 52.1396 58.6584C51.6196 58.3673 51.2096 57.9626 50.9092 57.4446C50.6088 56.9266 50.4584 56.3382 50.4584 55.6796C50.4584 55.0211 50.6088 54.4311 50.9092 53.9095Z" fill="white"/>
<path d="M59.2185 58.783C58.8053 58.5565 58.4801 58.235 58.2445 57.8192C58.0085 57.4034 57.8909 56.9238 57.8909 56.3801C57.8909 55.8368 58.0121 55.3569 58.2545 54.9411C58.4969 54.5256 58.8277 54.2041 59.2477 53.9772C59.6673 53.7499 60.1357 53.6362 60.6529 53.6362C61.1697 53.6362 61.6377 53.7499 62.0577 53.9772C62.4777 54.2041 62.8085 54.5256 63.0505 54.9411C63.2929 55.3569 63.4144 55.8368 63.4144 56.3801C63.4144 56.9238 63.29 57.4034 63.0413 57.8192C62.7925 58.235 62.4565 58.5565 62.0333 58.783C61.6101 59.0103 61.1373 59.124 60.6141 59.124C60.0973 59.124 59.6321 59.0103 59.2185 58.783ZM61.3069 57.776C61.5233 57.6576 61.6961 57.4802 61.8253 57.2434C61.9545 57.007 62.0189 56.7195 62.0189 56.3801C62.0189 55.8748 61.8849 55.4863 61.6169 55.2147C61.3485 54.9426 61.0209 54.8068 60.6333 54.8068C60.2457 54.8068 59.9213 54.9426 59.6593 55.2147C59.3981 55.4863 59.2669 55.8748 59.2669 56.3801C59.2669 56.8854 59.3945 57.2739 59.6497 57.5455C59.9049 57.8176 60.2265 57.9534 60.6141 57.9534C60.8593 57.9534 61.0901 57.8944 61.3069 57.776Z" fill="white"/>
<path d="M72.6727 54.2453C73.0763 54.6448 73.2783 55.2036 73.2783 55.9199V59.0373H71.922V56.1013C71.922 55.6859 71.8152 55.3675 71.602 55.147C71.3888 54.9264 71.098 54.8159 70.73 54.8159C70.3616 54.8159 70.0692 54.9264 69.8532 55.147C69.6364 55.3675 69.5284 55.6859 69.5284 56.1013V59.0373H68.172V56.1013C68.172 55.6859 68.0652 55.3675 67.852 55.147C67.6388 54.9264 67.348 54.8159 66.98 54.8159C66.6052 54.8159 66.3096 54.9264 66.0932 55.147C65.8768 55.3675 65.7684 55.6859 65.7684 56.1013V59.0373H64.412V53.7229H65.7684V54.3653C65.9428 54.1415 66.1672 53.9653 66.442 53.8374C66.7164 53.7095 67.0184 53.6461 67.348 53.6461C67.768 53.6461 68.1428 53.7336 68.4724 53.9095C68.8016 54.0857 69.0568 54.3363 69.2376 54.6626C69.412 54.3554 69.6656 54.1098 69.9984 53.9241C70.3312 53.7388 70.6912 53.6461 71.0788 53.6461C71.7376 53.6461 72.2692 53.8457 72.6727 54.2453Z" fill="white"/>
<path d="M76.646 53.8809C76.9524 53.7178 77.3032 53.6366 77.6972 53.6366C78.156 53.6366 78.5708 53.7487 78.9424 53.9724C79.314 54.1965 79.6076 54.5145 79.824 54.9272C80.0404 55.3398 80.1488 55.8174 80.1488 56.3611C80.1488 56.9044 80.0404 57.3859 79.824 57.8049C79.6076 58.2235 79.314 58.5482 78.9424 58.7783C78.5708 59.0087 78.156 59.1244 77.6972 59.1244C77.3032 59.1244 76.956 59.044 76.6556 58.884C76.3552 58.724 76.1113 58.5228 75.9237 58.2797V61.5701H74.5673V53.7233H75.9237V54.4904C76.0981 54.2472 76.3388 54.0441 76.646 53.8809ZM78.5644 55.5311C78.432 55.2978 78.2576 55.12 78.0412 54.9988C77.8244 54.8773 77.5904 54.8163 77.3388 54.8163C77.0932 54.8163 76.862 54.8792 76.646 55.0036C76.4292 55.1283 76.2548 55.3093 76.1225 55.5461C75.9901 55.7825 75.9237 56.0601 75.9237 56.3801C75.9237 56.7001 75.9901 56.978 76.1225 57.2145C76.2548 57.4513 76.4292 57.6322 76.646 57.757C76.862 57.8817 77.0932 57.9443 77.3388 57.9443C77.5904 57.9443 77.8244 57.8801 78.0412 57.7518C78.2576 57.6239 78.432 57.4422 78.5644 57.2057C78.6968 56.9689 78.7632 56.687 78.7632 56.3611C78.7632 56.0411 78.6968 55.7647 78.5644 55.5311Z" fill="white"/>
<path d="M82.4936 59.0381H81.1368V51.9386H82.4936V59.0381Z" fill="white"/>
<path d="M88.7827 56.7828H84.8579C84.8907 57.1665 85.0259 57.4671 85.2651 57.6845C85.5039 57.9023 85.7983 58.0108 86.1471 58.0108C86.6507 58.0108 87.0095 57.7966 87.2227 57.3681H88.6859C88.5307 57.8797 88.2335 58.3003 87.7943 58.6294C87.3551 58.9588 86.8155 59.1236 86.1759 59.1236C85.6591 59.1236 85.1955 59.0103 84.7855 58.783C84.3751 58.5561 84.0555 58.2345 83.8263 57.8191C83.5967 57.4033 83.4823 56.9238 83.4823 56.3801C83.4823 55.83 83.5951 55.3473 83.8215 54.9315C84.0475 54.5157 84.3639 54.1961 84.7711 53.972C85.1779 53.7483 85.6463 53.6366 86.1759 53.6366C86.6863 53.6366 87.1435 53.7455 87.5471 53.9629C87.9507 54.1803 88.2643 54.4884 88.4871 54.8884C88.7099 55.2879 88.8215 55.7473 88.8215 56.2652C88.8215 56.4573 88.8083 56.6296 88.7827 56.7828ZM87.4163 55.8811C87.4099 55.5358 87.2839 55.2598 87.0387 55.0515C86.7927 54.844 86.4923 54.7395 86.1371 54.7395C85.8011 54.7395 85.5187 54.8404 85.2895 55.0416C85.0599 55.2432 84.9195 55.5231 84.8679 55.8811H87.4163Z" fill="white"/>
<path d="M91.3892 54.8263V57.3971C91.3892 57.5761 91.4328 57.7056 91.52 57.7856C91.6072 57.8656 91.7544 57.9056 91.9612 57.9056H92.5908V59.0377H91.738C90.5944 59.0377 90.0228 58.4877 90.0228 57.3876V54.8263H89.3828V53.723H90.0228V52.4087H91.3892V53.723H92.5908V54.8263H91.3892Z" fill="white"/>
<path d="M98.5212 56.7828H94.5964C94.6292 57.1665 94.7644 57.4671 95.0036 57.6845C95.2424 57.9023 95.5368 58.0108 95.8856 58.0108C96.3892 58.0108 96.748 57.7966 96.9612 57.3681H98.4244C98.2692 57.8797 97.972 58.3003 97.5328 58.6294C97.0936 58.9588 96.554 59.1236 95.9144 59.1236C95.3976 59.1236 94.934 59.0103 94.524 58.783C94.1136 58.5561 93.794 58.2345 93.5648 57.8191C93.3352 57.4033 93.2208 56.9238 93.2208 56.3801C93.2208 55.83 93.3336 55.3473 93.56 54.9315C93.786 54.5157 94.1024 54.1961 94.5096 53.972C94.9164 53.7483 95.3848 53.6366 95.9144 53.6366C96.4248 53.6366 96.882 53.7455 97.2856 53.9629C97.6892 54.1803 98.0028 54.4884 98.2256 54.8884C98.4484 55.2879 98.56 55.7473 98.56 56.2652C98.56 56.4573 98.5468 56.6296 98.5212 56.7828ZM97.1548 55.8811C97.1484 55.5358 97.0224 55.2598 96.7772 55.0515C96.5312 54.844 96.2308 54.7395 95.8756 54.7395C95.5396 54.7395 95.2572 54.8404 95.028 55.0416C94.7984 55.2432 94.658 55.5231 94.6064 55.8811H97.1548Z" fill="white"/>
<path d="M99.5238 54.9316C99.7402 54.5162 100.036 54.1958 100.411 53.9721C100.786 53.7483 101.202 53.6363 101.661 53.6363C102.01 53.6363 102.342 53.7119 102.659 53.862C102.975 54.0125 103.227 54.2124 103.415 54.4615V51.9386H104.79V59.0377H103.415V58.2512C103.247 58.5134 103.011 58.7245 102.707 58.884C102.404 59.044 102.052 59.1236 101.651 59.1236C101.199 59.1236 100.786 59.0088 100.411 58.7787C100.036 58.5486 99.7402 58.2239 99.5238 57.8049C99.3074 57.3864 99.1998 56.9048 99.1998 56.3611C99.1998 55.8238 99.3074 55.3478 99.5238 54.9316ZM103.231 55.5406C103.102 55.3074 102.927 55.128 102.707 55.0032C102.488 54.8785 102.252 54.8167 102 54.8167C101.748 54.8167 101.515 54.8777 101.302 54.9989C101.089 55.1205 100.917 55.2979 100.784 55.5315C100.652 55.7648 100.585 56.0416 100.585 56.3611C100.585 56.6811 100.652 56.9603 100.784 57.2003C100.917 57.4398 101.091 57.6244 101.307 57.7523C101.523 57.8802 101.754 57.9439 102 57.9439C102.252 57.9439 102.488 57.8814 102.707 57.7566C102.927 57.6319 103.102 57.4533 103.231 57.2197C103.36 56.9864 103.425 56.7064 103.425 56.3805C103.425 56.0542 103.36 55.7743 103.231 55.5406Z" fill="white"/>
<path d="M173.493 58.3086C173.534 58.212 173.534 58.1027 173.493 58.0061C173.472 57.9574 173.443 57.9138 173.406 57.8774L170.998 55.4927C170.841 55.3382 170.588 55.3382 170.432 55.4927C170.276 55.6475 170.276 55.8982 170.432 56.0526L172.158 57.7613H167.342C166.5 57.7613 165.815 57.083 165.815 56.2494V52.9111C165.815 52.6921 165.636 52.5151 165.415 52.5151C165.194 52.5151 165.015 52.6921 165.015 52.9111V56.2494C165.015 57.5198 166.059 58.5533 167.342 58.5533H172.158L170.432 60.2621C170.276 60.4169 170.276 60.6676 170.432 60.822C170.51 60.8992 170.613 60.9381 170.715 60.9381C170.818 60.9381 170.919 60.8992 170.998 60.822L173.406 58.4377C173.443 58.4009 173.472 58.3573 173.493 58.3086Z" fill="white"/>
<path d="M173.683 81.1629H29.8492C25.4323 81.1629 21.8519 77.6183 21.8519 73.2457V63.754C21.8519 59.3251 25.4783 55.735 29.952 55.735H173.58C178.054 55.735 181.68 59.3251 181.68 63.754V73.2457C181.68 77.6183 178.1 81.1629 173.683 81.1629Z" fill="url(#paint2_linear_2_106)"/>
<path d="M37.0455 76.6307C32.4883 76.6307 28.7808 72.9602 28.7808 68.4486C28.7808 63.937 32.4883 60.2665 37.0455 60.2665C41.6027 60.2665 45.3103 63.937 45.3103 68.4486C45.3103 72.9602 41.6027 76.6307 37.0455 76.6307ZM37.0455 61.4545C33.1499 61.4545 29.9808 64.592 29.9808 68.4486C29.9808 72.3049 33.1499 75.4427 37.0455 75.4427C40.9411 75.4427 44.1103 72.3049 44.1103 68.4486C44.1103 64.592 40.9411 61.4545 37.0455 61.4545Z" fill="white"/>
<path d="M39.558 71.8303C39.4044 71.8303 39.2508 71.7729 39.1336 71.6569L36.4452 68.9954V64.8687C36.4452 64.5404 36.714 64.2747 37.0452 64.2747C37.3768 64.2747 37.6452 64.5404 37.6452 64.8687V68.5035L39.9824 70.8166C40.2164 71.0486 40.2164 71.4248 39.9824 71.6569C39.8652 71.7729 39.7116 71.8303 39.558 71.8303Z" fill="white"/>
<path d="M59.3425 64.3254L57.5073 70.8289H55.9545L54.7213 66.1981L53.4321 70.8289L51.8885 70.8388L50.1193 64.3254H51.5309L52.6885 69.3756L54.0253 64.3254H55.4933L56.7545 69.3475L57.9213 64.3254H59.3425Z" fill="white"/>
<path d="M60.1757 66.8408C60.3861 66.4373 60.6713 66.1268 61.0325 65.9094C61.3929 65.692 61.7961 65.5831 62.2417 65.5831C62.6305 65.5831 62.9705 65.6611 63.2625 65.8164C63.5541 65.972 63.7881 66.1676 63.9641 66.4036V65.6671H65.2909V70.8293H63.9641V70.0742C63.7945 70.3165 63.5601 70.5173 63.2625 70.6757C62.9645 70.8341 62.6213 70.9133 62.2321 70.9133C61.7929 70.9133 61.3929 70.8008 61.0325 70.5771C60.6713 70.3537 60.3861 70.0385 60.1757 69.6314C59.9657 69.2247 59.8605 68.7579 59.8605 68.23C59.8605 67.7081 59.9657 67.2447 60.1757 66.8408ZM63.7757 67.4328C63.6501 67.2059 63.4809 67.0321 63.2677 66.9109C63.0541 66.7897 62.8253 66.7295 62.5805 66.7295C62.3357 66.7295 62.1101 66.7886 61.9029 66.9062C61.6957 67.0242 61.5277 67.1968 61.3993 67.4233C61.2705 67.6502 61.2065 67.9195 61.2065 68.23C61.2065 68.5405 61.2705 68.8117 61.3993 69.0446C61.5277 69.2778 61.6969 69.4564 61.9073 69.5803C62.1173 69.7047 62.3421 69.7669 62.5805 69.7669C62.8253 69.7669 63.0541 69.7067 63.2677 69.5855C63.4809 69.4643 63.6501 69.2901 63.7757 69.0636C63.9009 68.8367 63.9641 68.565 63.9641 68.2486C63.9641 67.9314 63.9009 67.6597 63.7757 67.4328Z" fill="white"/>
<path d="M66.6692 64.8335C66.5156 64.6873 66.4384 64.506 66.4384 64.2882C66.4384 64.0708 66.5156 63.889 66.6692 63.7433C66.8228 63.5972 67.016 63.5243 67.248 63.5243C67.48 63.5243 67.6732 63.5972 67.8268 63.7433C67.9804 63.889 68.0576 64.0708 68.0576 64.2882C68.0576 64.506 67.9804 64.6873 67.8268 64.8335C67.6732 64.9792 67.48 65.0525 67.248 65.0525C67.016 65.0525 66.8228 64.9792 66.6692 64.8335ZM67.8972 70.8289H66.5796V65.667H67.8972V70.8289Z" fill="white"/>
<path d="M70.73 66.7385V69.2361C70.73 69.4099 70.772 69.5351 70.8568 69.6131C70.9416 69.6907 71.084 69.7299 71.2848 69.7299H71.8972V70.8292H71.0684C69.958 70.8292 69.4032 70.295 69.4032 69.2266V66.7385H68.7812V65.667H69.4032V64.3903H70.73V65.667H71.8972V66.7385H70.73Z" fill="white"/>
<path d="M72.9377 64.8335C72.7837 64.6873 72.7073 64.506 72.7073 64.2882C72.7073 64.0708 72.7837 63.889 72.9377 63.7433C73.0913 63.5972 73.2841 63.5243 73.5161 63.5243C73.7485 63.5243 73.9413 63.5972 74.0953 63.7433C74.2489 63.889 74.3257 64.0708 74.3257 64.2882C74.3257 64.506 74.2489 64.6873 74.0953 64.8335C73.9413 64.9792 73.7485 65.0525 73.5161 65.0525C73.2841 65.0525 73.0913 64.9792 72.9377 64.8335ZM74.1657 70.8289H72.8481V65.667H74.1657V70.8289Z" fill="white"/>
<path d="M79.8597 66.1752C80.2425 66.5632 80.4341 67.1054 80.4341 67.8007V70.8293H79.1161V67.9782C79.1161 67.5683 79.0125 67.2531 78.8057 67.0325C78.5985 66.8119 78.3161 66.7018 77.9585 66.7018C77.5945 66.7018 77.3077 66.8119 77.0973 67.0325C76.8869 67.2531 76.7821 67.5683 76.7821 67.9782V70.8293H75.4645V65.6675H76.7821V66.3102C76.9577 66.0865 77.1821 65.911 77.4549 65.7839C77.7281 65.6568 78.0277 65.5927 78.3537 65.5927C78.9753 65.5927 79.4769 65.7871 79.8597 66.1752Z" fill="white"/>
<path d="M84.7536 65.8116C85.0484 65.9641 85.2808 66.1613 85.45 66.4036V65.6674H86.7772V70.8665C86.7772 71.3449 86.68 71.7722 86.4856 72.1476C86.2908 72.5234 85.9992 72.8216 85.61 73.0425C85.2208 73.2627 84.7504 73.3728 84.1984 73.3728C83.458 73.3728 82.8508 73.2021 82.3776 72.8604C81.9036 72.5186 81.6352 72.0529 81.5724 71.4629H82.8808C82.9496 71.6989 83.0988 71.887 83.328 72.0268C83.5568 72.1666 83.8344 72.2363 84.1608 72.2363C84.5436 72.2363 84.854 72.123 85.0928 71.8965C85.3308 71.6696 85.45 71.3263 85.45 70.8665V70.065C85.2808 70.307 85.0468 70.5093 84.7492 70.6709C84.4508 70.8325 84.1104 70.9133 83.728 70.9133C83.2884 70.9133 82.8872 70.8008 82.5232 70.5771C82.1592 70.3537 81.872 70.0385 81.662 69.6314C81.4516 69.2247 81.3468 68.7578 81.3468 68.23C81.3468 67.708 81.4516 67.2447 81.662 66.8408C81.872 66.4373 82.1576 66.1272 82.5184 65.9098C82.8792 65.6924 83.282 65.5835 83.728 65.5835C84.1168 65.5835 84.4588 65.6595 84.7536 65.8116ZM85.262 67.4328C85.1364 67.2059 84.9672 67.0325 84.7536 66.9113C84.5404 66.7901 84.3116 66.7295 84.0664 66.7295C83.822 66.7295 83.596 66.7889 83.3892 66.9065C83.182 67.0245 83.014 67.1972 82.8856 67.4237C82.7568 67.6506 82.6924 67.9195 82.6924 68.23C82.6924 68.5404 82.7568 68.8121 82.8856 69.0449C83.014 69.2782 83.1836 69.4564 83.3936 69.5803C83.604 69.7047 83.828 69.7672 84.0664 69.7672C84.3116 69.7672 84.5404 69.7066 84.7536 69.5855C84.9672 69.4643 85.1364 69.2905 85.262 69.0639C85.3872 68.837 85.45 68.565 85.45 68.2486C85.45 67.9314 85.3872 67.6597 85.262 67.4328Z" fill="white"/>
<path d="M173.493 70.0547C173.534 69.9581 173.534 69.8488 173.493 69.7522C173.472 69.7039 173.443 69.6599 173.406 69.6235L170.998 67.2388C170.841 67.0843 170.588 67.0843 170.432 67.2388C170.276 67.3936 170.276 67.6443 170.432 67.7987L172.158 69.5074H167.342C166.5 69.5074 165.815 68.8291 165.815 67.9955V64.6572C165.815 64.4382 165.636 64.2612 165.415 64.2612C165.194 64.2612 165.015 64.4382 165.015 64.6572V67.9955C165.015 69.2659 166.059 70.2994 167.342 70.2994H172.158L170.432 72.0082C170.276 72.163 170.276 72.4137 170.432 72.5681C170.51 72.6453 170.613 72.6841 170.715 72.6841C170.818 72.6841 170.919 72.6453 170.998 72.5681L173.406 70.1838C173.443 70.147 173.472 70.1034 173.493 70.0547Z" fill="white"/>
<path d="M191.516 94.8701L185.546 141.389C185.536 148.637 179.719 154.013 172.027 154.028C152.098 154.068 131.781 154.235 111.853 154.235C84.84 154.235 57.8272 154.246 30.8144 154.227C23.6948 154.222 18.736 150.425 17.2744 143.905L9 80.3076C9.0028 72.2102 14.412 66.7988 22.5776 66.7866C43.4404 66.7549 64.3036 66.8384 85.166 66.7272C89.8248 66.7022 93.1508 68.7163 95.9435 72.0751C96.6883 73.0628 98.2459 75.2966 100.877 80.0933C102.104 82.3296 104.179 83.478 106.712 83.8617C108.64 84.1535 110.568 84.3068 112.521 84.3052C128.392 84.2906 162.864 84.468 178.736 84.508C184.982 84.5234 190.239 88.8465 191.516 94.8701Z" fill="#538AF3"/>
<path d="M45.5436 198V178H39.3676V174.16H56.0076V178H49.9276V198H45.5436ZM61.6851 198.384C60.4691 198.384 59.4131 198.181 58.5171 197.776C57.6211 197.371 56.9278 196.795 56.4371 196.048C55.9465 195.28 55.7011 194.395 55.7011 193.392C55.7011 192.432 55.9145 191.579 56.3411 190.832C56.7678 190.064 57.4291 189.424 58.3251 188.912C59.2211 188.4 60.3518 188.037 61.7171 187.824L67.4131 186.896V190.096L62.5171 190.928C61.6851 191.077 61.0665 191.344 60.6611 191.728C60.2558 192.112 60.0531 192.613 60.0531 193.232C60.0531 193.829 60.2771 194.309 60.7251 194.672C61.1945 195.013 61.7705 195.184 62.4531 195.184C63.3278 195.184 64.0958 195.003 64.7571 194.64C65.4398 194.256 65.9625 193.733 66.3251 193.072C66.7091 192.411 66.9011 191.685 66.9011 190.896V186.416C66.9011 185.669 66.6025 185.051 66.0051 184.56C65.4291 184.048 64.6611 183.792 63.7011 183.792C62.8051 183.792 62.0051 184.037 61.3011 184.528C60.6185 184.997 60.1171 185.627 59.7971 186.416L56.3731 184.752C56.7145 183.835 57.2478 183.045 57.9731 182.384C58.7198 181.701 59.5945 181.168 60.5971 180.784C61.5998 180.4 62.6878 180.208 63.8611 180.208C65.2905 180.208 66.5491 180.475 67.6371 181.008C68.7251 181.52 69.5678 182.245 70.1651 183.184C70.7838 184.101 71.0931 185.179 71.0931 186.416V198H67.1251V195.024L68.0211 194.96C67.5731 195.707 67.0398 196.336 66.4211 196.848C65.8025 197.339 65.0985 197.723 64.3091 198C63.5198 198.256 62.6451 198.384 61.6851 198.384ZM81.5916 198.384C79.7356 198.384 78.1143 197.947 76.7276 197.072C75.3623 196.176 74.4236 194.971 73.9116 193.456L77.0476 191.952C77.4956 192.933 78.1143 193.701 78.9036 194.256C79.7143 194.811 80.6103 195.088 81.5916 195.088C82.3596 195.088 82.9676 194.917 83.4156 194.576C83.8636 194.235 84.0876 193.787 84.0876 193.232C84.0876 192.891 83.9916 192.613 83.7996 192.4C83.629 192.165 83.3836 191.973 83.0636 191.824C82.765 191.653 82.4343 191.515 82.0716 191.408L79.2236 190.608C77.7516 190.181 76.6316 189.531 75.8636 188.656C75.117 187.781 74.7436 186.747 74.7436 185.552C74.7436 184.485 75.0103 183.557 75.5436 182.768C76.0983 181.957 76.8556 181.328 77.8156 180.88C78.797 180.432 79.917 180.208 81.1756 180.208C82.8183 180.208 84.269 180.603 85.5276 181.392C86.7863 182.181 87.6823 183.291 88.2156 184.72L85.0156 186.224C84.717 185.435 84.2156 184.805 83.5116 184.336C82.8076 183.867 82.0183 183.632 81.1436 183.632C80.4396 183.632 79.885 183.792 79.4796 184.112C79.0743 184.432 78.8716 184.848 78.8716 185.36C78.8716 185.68 78.957 185.957 79.1276 186.192C79.2983 186.427 79.533 186.619 79.8316 186.768C80.1516 186.917 80.5143 187.056 80.9196 187.184L83.7036 188.016C85.133 188.443 86.2316 189.083 86.9996 189.936C87.789 190.789 88.1836 191.835 88.1836 193.072C88.1836 194.117 87.9063 195.045 87.3516 195.856C86.797 196.645 86.029 197.264 85.0476 197.712C84.0663 198.16 82.9143 198.384 81.5916 198.384ZM91.4051 198V173.776H95.5971V189.648L93.9971 189.168L102.189 180.592H107.405L100.973 187.6L107.533 198H102.733L97.0371 188.976L99.5331 188.464L94.2851 194.096L95.5971 191.536V198H91.4051ZM115.154 198.384C113.938 198.384 112.882 198.181 111.986 197.776C111.09 197.371 110.397 196.795 109.906 196.048C109.415 195.28 109.17 194.395 109.17 193.392C109.17 192.432 109.383 191.579 109.81 190.832C110.237 190.064 110.898 189.424 111.794 188.912C112.69 188.4 113.821 188.037 115.186 187.824L120.882 186.896V190.096L115.986 190.928C115.154 191.077 114.535 191.344 114.13 191.728C113.725 192.112 113.522 192.613 113.522 193.232C113.522 193.829 113.746 194.309 114.194 194.672C114.663 195.013 115.239 195.184 115.922 195.184C116.797 195.184 117.565 195.003 118.226 194.64C118.909 194.256 119.431 193.733 119.794 193.072C120.178 192.411 120.37 191.685 120.37 190.896V186.416C120.37 185.669 120.071 185.051 119.474 184.56C118.898 184.048 118.13 183.792 117.17 183.792C116.274 183.792 115.474 184.037 114.77 184.528C114.087 184.997 113.586 185.627 113.266 186.416L109.842 184.752C110.183 183.835 110.717 183.045 111.442 182.384C112.189 181.701 113.063 181.168 114.066 180.784C115.069 180.4 116.157 180.208 117.33 180.208C118.759 180.208 120.018 180.475 121.106 181.008C122.194 181.52 123.037 182.245 123.634 183.184C124.253 184.101 124.562 185.179 124.562 186.416V198H120.594V195.024L121.49 194.96C121.042 195.707 120.509 196.336 119.89 196.848C119.271 197.339 118.567 197.723 117.778 198C116.989 198.256 116.114 198.384 115.154 198.384ZM127.956 198V194.704L134.42 187.952C135.7 186.608 136.682 185.541 137.364 184.752C138.068 183.941 138.559 183.248 138.836 182.672C139.114 182.096 139.252 181.509 139.252 180.912C139.252 179.909 138.932 179.12 138.292 178.544C137.674 177.968 136.874 177.68 135.892 177.68C134.868 177.68 133.983 177.979 133.236 178.576C132.49 179.152 131.946 180.005 131.604 181.136L127.796 179.952C128.052 178.693 128.575 177.605 129.364 176.688C130.154 175.749 131.114 175.035 132.244 174.544C133.396 174.032 134.612 173.776 135.892 173.776C137.428 173.776 138.772 174.053 139.924 174.608C141.098 175.163 142.004 175.941 142.644 176.944C143.306 177.947 143.636 179.12 143.636 180.464C143.636 181.317 143.476 182.16 143.156 182.992C142.836 183.824 142.356 184.677 141.716 185.552C141.076 186.405 140.244 187.365 139.22 188.432L133.62 194.32H143.956V198H127.956ZM146.026 198V194.608L156.138 182.896L156.778 184.336H146.474V180.592H160.49V184.016L150.57 195.728L149.93 194.288H160.554V198H146.026Z" fill="white"/>
</g>
<defs>
<linearGradient id="paint0_linear_2_106" x1="101.808" y1="30.2512" x2="102.148" y2="55.5525" gradientUnits="userSpaceOnUse">
<stop stop-color="#EF748C"/>
<stop offset="0.5" stop-color="#ED5673"/>
<stop offset="1" stop-color="#EA395B"/>
</linearGradient>
<linearGradient id="paint1_linear_2_106" x1="101.932" y1="44.1319" x2="102.051" y2="69.694" gradientUnits="userSpaceOnUse">
<stop stop-color="#95F884"/>
<stop offset="0.5" stop-color="#89EA78"/>
<stop offset="1" stop-color="#7CDD6B"/>
</linearGradient>
<linearGradient id="paint2_linear_2_106" x1="101.742" y1="55.7057" x2="101.954" y2="80.8525" gradientUnits="userSpaceOnUse">
<stop stop-color="#FDCF74"/>
<stop offset="0.5" stop-color="#FEC85C"/>
<stop offset="1" stop-color="#FFC145"/>
</linearGradient>
</defs>
</svg>
