<svg width="201" height="201" viewBox="0 0 201 201" fill="none" xmlns="http://www.w3.org/2000/svg">
<g clip-path="url(#clip0_2_3)">
<mask id="mask0_2_3" style="mask-type:luminance" maskUnits="userSpaceOnUse" x="0" y="0" width="201" height="201">
<path d="M200.331 0.916199H0.330688V200.916H200.331V0.916199Z" fill="white"/>
</mask>
<g mask="url(#mask0_2_3)">
<path d="M171.38 39.5478H29.4751C22.2163 39.5478 16.3323 45.4318 16.3323 52.6906V158.695C16.3323 165.954 22.2163 171.838 29.4751 171.838H171.38C178.638 171.838 184.723 166.754 184.723 159.495V53.4906C184.723 46.2318 178.638 39.5478 171.38 39.5478Z" fill="#1E4584"/>
<path d="M172.926 72.3606H29.0915C24.6747 72.3606 21.0943 68.7802 21.0943 64.3634V54.7758C21.0943 50.3026 24.7207 46.6758 29.1943 46.6758H172.823C177.296 46.6758 180.923 50.3026 180.923 54.7758V64.3634C180.923 68.7802 177.343 72.3606 172.926 72.3606Z" fill="url(#paint0_linear_2_3)"/>
<path d="M36.2879 67.783C31.7307 67.783 28.0231 64.0758 28.0231 59.5186C28.0231 54.9614 31.7307 51.2534 36.2879 51.2534C40.8451 51.2534 44.5527 54.9614 44.5527 59.5186C44.5527 64.0758 40.8451 67.783 36.2879 67.783ZM36.2879 52.4534C32.3923 52.4534 29.2231 55.623 29.2231 59.5186C29.2231 63.4138 32.3923 66.583 36.2879 66.583C40.1835 66.583 43.3527 63.4138 43.3527 59.5186C43.3527 55.623 40.1835 52.4534 36.2879 52.4534Z" fill="white"/>
<path d="M37.0972 59.5182L39.7296 56.8858C39.9532 56.6626 39.9532 56.3002 39.7296 56.0766C39.506 55.8534 39.1436 55.8534 38.9204 56.0766L36.2884 58.7094L33.6552 56.0766C33.432 55.8534 33.07 55.8534 32.8464 56.0766C32.6228 56.3002 32.6228 56.6626 32.8464 56.8858L35.4788 59.5182L32.8464 62.1506C32.6228 62.3738 32.6228 62.7362 32.8464 62.9598C32.958 63.0714 33.1048 63.127 33.2508 63.127C33.3972 63.127 33.5436 63.0714 33.6552 62.9598L36.2884 60.327L38.9204 62.9598C39.032 63.0714 39.1784 63.127 39.3248 63.127C39.4712 63.127 39.618 63.0714 39.7296 62.9598C39.9532 62.7362 39.9532 62.3738 39.7296 62.1506L37.0972 59.5182Z" fill="white"/>
<path d="M53.5843 62.0782L52.0683 59.4006H51.4191V62.0782H50.0407V55.207H52.6199C53.1515 55.207 53.6043 55.3002 53.9783 55.4874C54.3523 55.6746 54.6331 55.9274 54.8199 56.2458C55.0071 56.5642 55.1007 56.9198 55.1007 57.3134C55.1007 57.7662 54.9691 58.1754 54.7067 58.5394C54.4443 58.9034 54.0531 59.1546 53.5351 59.2922L55.1791 62.0782H53.5843ZM51.4191 58.3666H52.5707C52.9447 58.3666 53.2231 58.277 53.4071 58.0962C53.5907 57.9162 53.6827 57.6646 53.6827 57.343C53.6827 57.0278 53.5907 56.7838 53.4071 56.6098C53.2231 56.4362 52.9447 56.349 52.5707 56.349H51.4191V58.3666Z" fill="white"/>
<path d="M61.3804 59.7642H57.3936C57.4264 60.1578 57.5644 60.4666 57.8072 60.6894C58.05 60.9126 58.3488 61.0242 58.7028 61.0242C59.2148 61.0242 59.5792 60.805 59.7956 60.365H61.2824C61.1248 60.8902 60.8224 61.3214 60.3764 61.659C59.93 61.9974 59.3824 62.1662 58.7324 62.1662C58.2076 62.1662 57.7364 62.0494 57.32 61.8166C56.9032 61.5838 56.5784 61.2542 56.3452 60.8274C56.1124 60.401 55.996 59.9086 55.996 59.3506C55.996 58.7866 56.1108 58.291 56.3404 57.8642C56.57 57.4378 56.892 57.1102 57.3052 56.8806C57.7184 56.6506 58.1944 56.5358 58.7324 56.5358C59.2508 56.5358 59.7152 56.6474 60.1256 56.8702C60.5352 57.0934 60.8536 57.4102 61.0804 57.8202C61.3068 58.2302 61.4196 58.701 61.4196 59.2326C61.4196 59.4298 61.4068 59.6066 61.3804 59.7642ZM59.9928 58.839C59.9864 58.4846 59.858 58.2006 59.6088 57.9874C59.3592 57.7742 59.0544 57.6674 58.6936 57.6674C58.352 57.6674 58.0652 57.771 57.8324 57.9778C57.5992 58.1842 57.4564 58.4714 57.404 58.839H59.9928Z" fill="white"/>
<path d="M63.802 62.973C63.802 63.5766 63.6528 64.0122 63.354 64.2778C63.0556 64.5434 62.6272 64.6762 62.0696 64.6762H61.4592V63.505H61.8528C62.0628 63.505 62.2104 63.4642 62.296 63.3822C62.3812 63.2998 62.424 63.1666 62.424 62.983V56.6242H63.802V62.973ZM62.5076 55.743C62.3468 55.589 62.2664 55.397 62.2664 55.1674C62.2664 54.9374 62.3468 54.7454 62.5076 54.5914C62.6684 54.437 62.8736 54.3602 63.1228 54.3602C63.3656 54.3602 63.566 54.437 63.7232 54.5914C63.8808 54.7454 63.9596 54.9374 63.9596 55.1674C63.9596 55.397 63.8808 55.589 63.7232 55.743C63.566 55.8974 63.3656 55.9742 63.1228 55.9742C62.8736 55.9742 62.6684 55.8974 62.5076 55.743Z" fill="white"/>
<path d="M70.1901 59.7642H66.2033C66.2361 60.1578 66.3741 60.4666 66.6169 60.6894C66.8597 60.9126 67.1585 61.0242 67.5125 61.0242C68.0245 61.0242 68.3889 60.805 68.6053 60.365H70.0921C69.9345 60.8902 69.6321 61.3214 69.1861 61.659C68.7397 61.9974 68.1921 62.1662 67.5421 62.1662C67.0173 62.1662 66.5461 62.0494 66.1297 61.8166C65.7129 61.5838 65.3881 61.2542 65.1549 60.8274C64.9221 60.401 64.8057 59.9086 64.8057 59.3506C64.8057 58.7866 64.9205 58.291 65.1501 57.8642C65.3797 57.4378 65.7017 57.1102 66.1149 56.8806C66.5281 56.6506 67.0041 56.5358 67.5421 56.5358C68.0605 56.5358 68.5249 56.6474 68.9353 56.8702C69.3449 57.0934 69.6633 57.4102 69.8901 57.8202C70.1165 58.2302 70.2293 58.701 70.2293 59.2326C70.2293 59.4298 70.2165 59.6066 70.1901 59.7642ZM68.8025 58.839C68.7961 58.4846 68.6677 58.2006 68.4185 57.9874C68.1689 57.7742 67.8641 57.6674 67.5033 57.6674C67.1617 57.6674 66.8749 57.771 66.6421 57.9778C66.4089 58.1842 66.2661 58.4714 66.2137 58.839H68.8025Z" fill="white"/>
<path d="M71.224 57.8694C71.4536 57.4462 71.772 57.1182 72.1788 56.885C72.5856 56.6522 73.0516 56.5358 73.5768 56.5358C74.2524 56.5358 74.812 56.7046 75.2552 57.0426C75.698 57.3806 75.9948 57.8546 76.146 58.465H74.6596C74.5808 58.2286 74.448 58.0434 74.2608 57.909C74.074 57.7746 73.8424 57.707 73.5668 57.707C73.1732 57.707 72.8612 57.8498 72.6316 58.1354C72.402 58.4206 72.2872 58.8262 72.2872 59.351C72.2872 59.8694 72.402 60.2714 72.6316 60.5566C72.8612 60.8422 73.1732 60.985 73.5668 60.985C74.1244 60.985 74.4888 60.7358 74.6596 60.2366H76.146C75.9948 60.8274 75.6964 61.2966 75.25 61.6446C74.8036 61.9926 74.246 62.1662 73.5768 62.1662C73.0516 62.1662 72.5856 62.0498 72.1788 61.8166C71.772 61.5838 71.4536 61.2558 71.224 60.8322C70.9944 60.409 70.8796 59.9154 70.8796 59.351C70.8796 58.7866 70.9944 58.2926 71.224 57.8694Z" fill="white"/>
<path d="M78.764 57.7562V60.3942C78.764 60.5782 78.808 60.7114 78.8968 60.7934C78.9856 60.8754 79.1348 60.9162 79.3448 60.9162H79.9844V62.0778H79.1184C77.9568 62.0778 77.376 61.5138 77.376 60.3846V57.7562H76.7264V56.6246H77.376V55.2754H78.764V56.6246H79.9844V57.7562H78.764Z" fill="white"/>
<path d="M86.0091 59.7642H82.0223C82.0551 60.1578 82.1927 60.4666 82.4355 60.6894C82.6787 60.9126 82.9771 61.0242 83.3315 61.0242C83.8435 61.0242 84.2075 60.805 84.4243 60.365H85.9107C85.7531 60.8902 85.4511 61.3214 85.0047 61.659C84.5587 61.9974 84.0107 62.1662 83.3611 62.1662C82.8359 62.1662 82.3651 62.0494 81.9483 61.8166C81.5315 61.5838 81.2067 61.2542 80.9739 60.8274C80.7407 60.401 80.6243 59.9086 80.6243 59.3506C80.6243 58.7866 80.7391 58.291 80.9691 57.8642C81.1987 57.4378 81.5203 57.1102 81.9335 56.8806C82.3471 56.6506 82.8227 56.5358 83.3611 56.5358C83.8795 56.5358 84.3439 56.6474 84.7539 56.8702C85.1639 57.0934 85.4823 57.4102 85.7087 57.8202C85.9351 58.2302 86.0483 58.701 86.0483 59.2326C86.0483 59.4298 86.0351 59.6066 86.0091 59.7642ZM84.6211 58.839C84.6143 58.4846 84.4863 58.2006 84.2371 57.9874C83.9875 57.7742 83.6823 57.6674 83.3215 57.6674C82.9803 57.6674 82.6931 57.771 82.4603 57.9778C82.2275 58.1842 82.0847 58.4714 82.0319 58.839H84.6211Z" fill="white"/>
<path d="M87.0278 57.865C87.2474 57.4382 87.5478 57.1102 87.9286 56.8806C88.309 56.6506 88.7318 56.5358 89.1978 56.5358C89.5522 56.5358 89.8906 56.613 90.2122 56.767C90.5338 56.9214 90.7894 57.1266 90.9798 57.3822V54.793H92.3778V62.0774H90.9798V61.2706C90.809 61.5398 90.5694 61.7566 90.2614 61.9206C89.9526 62.0842 89.5954 62.1666 89.1882 62.1666C88.729 62.1666 88.309 62.0478 87.9286 61.8118C87.5478 61.5754 87.2474 61.243 87.0278 60.813C86.8078 60.383 86.6978 59.889 86.6978 59.331C86.6978 58.7798 86.8078 58.2914 87.0278 57.865ZM90.793 58.4894C90.6614 58.2498 90.4846 58.0662 90.2614 57.9382C90.0382 57.8102 89.799 57.7466 89.5426 57.7466C89.2866 57.7466 89.0506 57.809 88.8342 57.9338C88.6178 58.0582 88.4418 58.2406 88.3074 58.4802C88.1726 58.7198 88.1054 59.003 88.1054 59.331C88.1054 59.6594 88.1726 59.9466 88.3074 60.1926C88.4418 60.439 88.6186 60.6278 88.839 60.7586C89.0586 60.8902 89.2934 60.9554 89.5426 60.9554C89.799 60.9554 90.0382 60.8918 90.2614 60.7638C90.4846 60.6358 90.6614 60.4518 90.793 60.2122C90.9242 59.9726 90.9898 59.6858 90.9898 59.351C90.9898 59.0166 90.9242 58.729 90.793 58.4894Z" fill="white"/>
<path d="M172.735 61.1166C172.776 61.019 172.776 60.9086 172.735 60.811C172.715 60.7622 172.685 60.7178 172.648 60.681L170.24 58.2722C170.083 58.1162 169.831 58.1162 169.675 58.2722C169.518 58.4286 169.518 58.6818 169.675 58.8378L171.4 60.5638H166.584C165.743 60.5638 165.058 59.8786 165.058 59.0366V55.6646C165.058 55.4434 164.878 55.2646 164.658 55.2646C164.436 55.2646 164.258 55.4434 164.258 55.6646V59.0366C164.258 60.3198 165.301 61.3638 166.584 61.3638H171.4L169.675 63.0898C169.518 63.2462 169.518 63.4994 169.675 63.6554C169.753 63.7334 169.855 63.7726 169.957 63.7726C170.06 63.7726 170.161 63.7334 170.24 63.6554L172.648 61.247C172.685 61.2098 172.715 61.1658 172.735 61.1166Z" fill="white"/>
<path d="M172.926 86.4574H29.0915C24.6747 86.4574 21.0943 82.877 21.0943 78.4602V68.8726C21.0943 64.3994 24.7207 60.7726 29.1943 60.7726H172.823C177.296 60.7726 180.923 64.3994 180.923 68.8726V78.4602C180.923 82.877 177.343 86.4574 172.926 86.4574Z" fill="url(#paint1_linear_2_3)"/>
<path d="M36.2879 81.8798C31.7307 81.8798 28.0231 78.1726 28.0231 73.6154C28.0231 69.0582 31.7307 65.3502 36.2879 65.3502C40.8451 65.3502 44.5527 69.0582 44.5527 73.6154C44.5527 78.1726 40.8451 81.8798 36.2879 81.8798ZM36.2879 66.5502C32.3923 66.5502 29.2231 69.7198 29.2231 73.6154C29.2231 77.5106 32.3923 80.6798 36.2879 80.6798C40.1835 80.6798 43.3527 77.5106 43.3527 73.6154C43.3527 69.7198 40.1835 66.5502 36.2879 66.5502Z" fill="white"/>
<path d="M35.1583 77.3394C34.9911 77.3394 34.8311 77.2698 34.7175 77.1466L32.0067 74.2102C31.7819 73.9666 31.7971 73.5874 32.0407 73.3626C32.2843 73.1378 32.6643 73.1534 32.8883 73.3966L35.1243 75.8186L39.6583 70.117C39.8643 69.8578 40.2423 69.8142 40.5011 70.0206C40.7603 70.2266 40.8035 70.6046 40.5971 70.8638L35.6279 77.1134C35.5187 77.2502 35.3555 77.333 35.1803 77.3394C35.1731 77.3398 35.1659 77.3394 35.1583 77.3394Z" fill="white"/>
<path d="M50.1516 70.7694C50.452 70.243 50.862 69.833 51.382 69.5386C51.902 69.245 52.4852 69.0978 53.1312 69.0978C53.8872 69.0978 54.5492 69.2922 55.118 69.6798C55.686 70.0674 56.0836 70.6034 56.3096 71.2882H54.7496C54.5944 70.9654 54.3764 70.7226 54.0952 70.561C53.8144 70.3998 53.4896 70.3194 53.1216 70.3194C52.7272 70.3194 52.3768 70.4114 52.07 70.5954C51.7632 70.7794 51.5244 71.0394 51.3532 71.375C51.182 71.711 51.0964 72.105 51.0964 72.5574C51.0964 73.003 51.182 73.3958 51.3532 73.735C51.5244 74.0742 51.7632 74.3354 52.07 74.5194C52.3768 74.7038 52.7272 74.7958 53.1216 74.7958C53.4896 74.7958 53.8144 74.7138 54.0952 74.549C54.3764 74.3842 54.5944 74.1402 54.7496 73.817H56.3096C56.0836 74.5086 55.6876 75.0462 55.1224 75.4306C54.5572 75.815 53.8932 76.0074 53.1312 76.0074C52.4852 76.0074 51.902 75.8602 51.382 75.5662C50.862 75.2722 50.452 74.8634 50.1516 74.3402C49.8512 73.817 49.7008 73.2226 49.7008 72.5574C49.7008 71.8922 49.8512 71.2962 50.1516 70.7694Z" fill="white"/>
<path d="M58.4609 75.6922C58.0477 75.4634 57.7225 75.1386 57.4869 74.7186C57.2509 74.2986 57.1333 73.8142 57.1333 73.265C57.1333 72.7162 57.2545 72.2314 57.4969 71.8114C57.7393 71.3918 58.0701 71.067 58.4901 70.8378C58.9097 70.6082 59.3781 70.4934 59.8953 70.4934C60.4121 70.4934 60.8801 70.6082 61.3001 70.8378C61.7201 71.067 62.0509 71.3918 62.2929 71.8114C62.5353 72.2314 62.6569 72.7162 62.6569 73.265C62.6569 73.8142 62.5325 74.2986 62.2837 74.7186C62.0349 75.1386 61.6989 75.4634 61.2757 75.6922C60.8525 75.9218 60.3797 76.0366 59.8565 76.0366C59.3397 76.0366 58.8745 75.9218 58.4609 75.6922ZM60.5493 74.675C60.7657 74.5554 60.9385 74.3762 61.0677 74.137C61.1969 73.8982 61.2613 73.6078 61.2613 73.265C61.2613 72.7546 61.1273 72.3622 60.8593 72.0878C60.5909 71.813 60.2633 71.6758 59.8757 71.6758C59.4881 71.6758 59.1637 71.813 58.9017 72.0878C58.6405 72.3622 58.5093 72.7546 58.5093 73.265C58.5093 73.7754 58.6369 74.1678 58.8921 74.4422C59.1473 74.717 59.4689 74.8542 59.8565 74.8542C60.1017 74.8542 60.3325 74.7946 60.5493 74.675Z" fill="white"/>
<path d="M71.9151 71.1086C72.3187 71.5122 72.5207 72.0766 72.5207 72.8002V75.949H71.1643V72.9834C71.1643 72.5638 71.0575 72.2422 70.8443 72.0194C70.6311 71.7966 70.3403 71.685 69.9723 71.685C69.6039 71.685 69.3115 71.7966 69.0955 72.0194C68.8787 72.2422 68.7707 72.5638 68.7707 72.9834V75.949H67.4143V72.9834C67.4143 72.5638 67.3075 72.2422 67.0943 72.0194C66.8811 71.7966 66.5903 71.685 66.2223 71.685C65.8475 71.685 65.5519 71.7966 65.3355 72.0194C65.1192 72.2422 65.0108 72.5638 65.0108 72.9834V75.949H63.6544V70.581H65.0108V71.2298C65.1852 71.0038 65.4095 70.8258 65.6843 70.6966C65.9587 70.5674 66.2607 70.5034 66.5903 70.5034C67.0103 70.5034 67.3851 70.5918 67.7147 70.7694C68.0439 70.9474 68.2991 71.2006 68.4799 71.5302C68.6543 71.2198 68.9079 70.9718 69.2407 70.7842C69.5735 70.597 69.9335 70.5034 70.3211 70.5034C70.9799 70.5034 71.5115 70.705 71.9151 71.1086Z" fill="white"/>
<path d="M75.8885 70.7406C76.1949 70.5758 76.5457 70.4938 76.9397 70.4938C77.3985 70.4938 77.8133 70.607 78.1849 70.833C78.5565 71.0594 78.8501 71.3806 79.0665 71.7974C79.2829 72.2142 79.3913 72.6966 79.3913 73.2458C79.3913 73.7946 79.2829 74.281 79.0665 74.7042C78.8501 75.127 78.5565 75.455 78.1849 75.6874C77.8133 75.9202 77.3985 76.037 76.9397 76.037C76.5457 76.037 76.1985 75.9558 75.8981 75.7942C75.5977 75.6326 75.3537 75.4294 75.1661 75.1838V78.5074H73.8097V70.5814H75.1661V71.3562C75.3405 71.1106 75.5813 70.9054 75.8885 70.7406ZM77.8069 72.4074C77.6745 72.1718 77.5001 71.9922 77.2837 71.8698C77.0669 71.747 76.8329 71.6854 76.5813 71.6854C76.3357 71.6854 76.1045 71.749 75.8885 71.8746C75.6717 72.0006 75.4973 72.1834 75.3649 72.4226C75.2325 72.6614 75.1661 72.9418 75.1661 73.265C75.1661 73.5882 75.2325 73.869 75.3649 74.1078C75.4973 74.347 75.6717 74.5298 75.8885 74.6558C76.1045 74.7818 76.3357 74.845 76.5813 74.845C76.8329 74.845 77.0669 74.7802 77.2837 74.6506C77.5001 74.5214 77.6745 74.3378 77.8069 74.099C77.9393 73.8598 78.0057 73.575 78.0057 73.2458C78.0057 72.9226 77.9393 72.6434 77.8069 72.4074Z" fill="white"/>
<path d="M81.7361 75.9498H80.3793V68.7786H81.7361V75.9498Z" fill="white"/>
<path d="M88.0251 73.6718H84.1003C84.1331 74.0594 84.2683 74.363 84.5075 74.5826C84.7463 74.8026 85.0407 74.9122 85.3895 74.9122C85.8931 74.9122 86.2519 74.6958 86.4651 74.263H87.9283C87.7731 74.7798 87.4759 75.2046 87.0367 75.537C86.5975 75.8698 86.0579 76.0362 85.4183 76.0362C84.9015 76.0362 84.4379 75.9218 84.0279 75.6922C83.6175 75.463 83.2979 75.1382 83.0687 74.7186C82.8391 74.2986 82.7247 73.8142 82.7247 73.265C82.7247 72.7094 82.8375 72.2218 83.0639 71.8018C83.2899 71.3818 83.6063 71.059 84.0135 70.8326C84.4203 70.6066 84.8887 70.4938 85.4183 70.4938C85.9287 70.4938 86.3859 70.6038 86.7895 70.8234C87.1931 71.043 87.5067 71.3542 87.7295 71.7582C87.9523 72.1618 88.0639 72.6258 88.0639 73.149C88.0639 73.343 88.0507 73.517 88.0251 73.6718ZM86.6587 72.761C86.6523 72.4122 86.5263 72.1334 86.2811 71.923C86.0351 71.7134 85.7347 71.6078 85.3795 71.6078C85.0435 71.6078 84.7611 71.7098 84.5319 71.913C84.3023 72.1166 84.1619 72.3994 84.1103 72.761H86.6587Z" fill="white"/>
<path d="M90.6316 71.6954V74.2922C90.6316 74.473 90.6752 74.6038 90.7624 74.6846C90.8496 74.7654 90.9968 74.8058 91.2036 74.8058H91.8332V75.9494H90.9804C89.8368 75.9494 89.2652 75.3938 89.2652 74.2826V71.6954H88.6252V70.581H89.2652V69.2534H90.6316V70.581H91.8332V71.6954H90.6316Z" fill="white"/>
<path d="M97.7636 73.6718H93.8388C93.8716 74.0594 94.0068 74.363 94.246 74.5826C94.4848 74.8026 94.7792 74.9122 95.128 74.9122C95.6316 74.9122 95.9904 74.6958 96.2036 74.263H97.6668C97.5116 74.7798 97.2144 75.2046 96.7752 75.537C96.336 75.8698 95.7964 76.0362 95.1568 76.0362C94.64 76.0362 94.1764 75.9218 93.7665 75.6922C93.3561 75.463 93.0365 75.1382 92.8073 74.7186C92.5777 74.2986 92.4633 73.8142 92.4633 73.265C92.4633 72.7094 92.5761 72.2218 92.8025 71.8018C93.0285 71.3818 93.3449 71.059 93.7521 70.8326C94.1588 70.6066 94.6272 70.4938 95.1568 70.4938C95.6672 70.4938 96.1244 70.6038 96.528 70.8234C96.9316 71.043 97.2452 71.3542 97.468 71.7582C97.6908 72.1618 97.8024 72.6258 97.8024 73.149C97.8024 73.343 97.7892 73.517 97.7636 73.6718ZM96.3972 72.761C96.3908 72.4122 96.2648 72.1334 96.0196 71.923C95.7736 71.7134 95.4732 71.6078 95.118 71.6078C94.782 71.6078 94.4996 71.7098 94.2704 71.913C94.0408 72.1166 93.9004 72.3994 93.8488 72.761H96.3972Z" fill="white"/>
<path d="M98.7662 71.8018C98.9826 71.3822 99.2786 71.0586 99.6534 70.8326C100.028 70.6066 100.445 70.4934 100.903 70.4934C101.252 70.4934 101.585 70.5698 101.901 70.7214C102.218 70.8734 102.469 71.0754 102.657 71.327V68.7786H104.033V75.9494H102.657V75.155C102.489 75.4198 102.253 75.633 101.95 75.7942C101.646 75.9558 101.294 76.0362 100.894 76.0362C100.441 76.0362 100.028 75.9202 99.6534 75.6878C99.2786 75.4554 98.9826 75.1274 98.7662 74.7042C98.5498 74.2814 98.4422 73.795 98.4422 73.2458C98.4422 72.703 98.5498 72.2222 98.7662 71.8018ZM102.473 72.417C102.344 72.1814 102.169 72.0002 101.95 71.8742C101.731 71.7482 101.494 71.6858 101.242 71.6858C100.99 71.6858 100.758 71.7474 100.545 71.8698C100.331 71.9926 100.159 72.1718 100.027 72.4078C99.8942 72.6434 99.8274 72.923 99.8274 73.2458C99.8274 73.569 99.8942 73.851 100.027 74.0934C100.159 74.3354 100.333 74.5218 100.55 74.651C100.766 74.7802 100.997 74.8446 101.242 74.8446C101.494 74.8446 101.731 74.7814 101.95 74.6554C102.169 74.5294 102.344 74.349 102.473 74.113C102.602 73.8774 102.667 73.5946 102.667 73.2654C102.667 72.9358 102.602 72.653 102.473 72.417Z" fill="white"/>
<path d="M172.735 75.213C172.776 75.1154 172.776 75.005 172.735 74.9074C172.715 74.8582 172.685 74.8142 172.648 74.7774L170.24 72.3686C170.083 72.2126 169.831 72.2126 169.675 72.3686C169.518 72.525 169.518 72.7782 169.675 72.9342L171.4 74.6602H166.584C165.743 74.6602 165.058 73.975 165.058 73.133V69.761C165.058 69.5398 164.878 69.361 164.658 69.361C164.436 69.361 164.258 69.5398 164.258 69.761V73.133C164.258 74.4162 165.301 75.4602 166.584 75.4602H171.4L169.675 77.1862C169.518 77.3426 169.518 77.5958 169.675 77.7518C169.753 77.8298 169.855 77.869 169.957 77.869C170.06 77.869 170.161 77.8298 170.24 77.7518L172.648 75.3434C172.685 75.3062 172.715 75.2622 172.735 75.213Z" fill="white"/>
<path d="M172.926 98.2981H29.0915C24.6747 98.2981 21.0943 94.7178 21.0943 90.301V80.7134C21.0943 76.2398 24.7207 72.6134 29.1943 72.6134H172.823C177.296 72.6134 180.923 76.2398 180.923 80.7134V90.301C180.923 94.7178 177.343 98.2981 172.926 98.2981Z" fill="url(#paint2_linear_2_3)"/>
<path d="M36.2879 93.7202C31.7307 93.7202 28.0231 90.0126 28.0231 85.4554C28.0231 80.8982 31.7307 77.1906 36.2879 77.1906C40.8451 77.1906 44.5527 80.8982 44.5527 85.4554C44.5527 90.0126 40.8451 93.7202 36.2879 93.7202ZM36.2879 78.3906C32.3923 78.3906 29.2231 81.5598 29.2231 85.4554C29.2231 89.3506 32.3923 92.5202 36.2879 92.5202C40.1835 92.5202 43.3527 89.3506 43.3527 85.4554C43.3527 81.5598 40.1835 78.3906 36.2879 78.3906Z" fill="white"/>
<path d="M38.8004 88.8714C38.6468 88.8714 38.4932 88.8134 38.376 88.6962L35.6876 86.0078V81.8394C35.6876 81.5078 35.9564 81.2394 36.2876 81.2394C36.6192 81.2394 36.8876 81.5078 36.8876 81.8394V85.511L39.2248 87.8474C39.4588 88.0818 39.4588 88.4618 39.2248 88.6962C39.1076 88.8134 38.954 88.8714 38.8004 88.8714Z" fill="white"/>
<path d="M58.5848 81.2906L56.7496 87.8598H55.1968L53.9636 83.1822L52.6744 87.8598L51.1308 87.8698L49.3616 81.2906H50.7732L51.9308 86.3918L53.2676 81.2906H54.7356L55.9968 86.3634L57.1636 81.2906H58.5848Z" fill="white"/>
<path d="M59.418 83.8314C59.6284 83.4238 59.9136 83.1102 60.2748 82.8906C60.6352 82.671 61.0384 82.561 61.484 82.561C61.8728 82.561 62.2128 82.6398 62.5048 82.7966C62.7964 82.9538 63.0304 83.1514 63.2064 83.3898V82.6458H64.5332V87.8602H63.2064V87.0974C63.0368 87.3422 62.8024 87.545 62.5048 87.705C62.2068 87.865 61.8636 87.945 61.4744 87.945C61.0352 87.945 60.6352 87.8314 60.2748 87.6054C59.9136 87.3798 59.6284 87.0614 59.418 86.6502C59.208 86.2394 59.1028 85.7678 59.1028 85.2346C59.1028 84.7074 59.208 84.2394 59.418 83.8314ZM63.018 84.4294C62.8924 84.2002 62.7232 84.0246 62.51 83.9022C62.2964 83.7798 62.0676 83.719 61.8228 83.719C61.578 83.719 61.3524 83.7786 61.1452 83.8974C60.938 84.0166 60.77 84.191 60.6416 84.4198C60.5128 84.649 60.4488 84.921 60.4488 85.2346C60.4488 85.5482 60.5128 85.8222 60.6416 86.0574C60.77 86.293 60.9392 86.4734 61.1496 86.5986C61.3596 86.7242 61.5844 86.787 61.8228 86.787C62.0676 86.787 62.2964 86.7262 62.51 86.6038C62.7232 86.4814 62.8924 86.3054 63.018 86.0766C63.1432 85.8474 63.2064 85.573 63.2064 85.2534C63.2064 84.933 63.1432 84.6586 63.018 84.4294Z" fill="white"/>
<path d="M65.9116 81.8038C65.758 81.6562 65.6808 81.473 65.6808 81.253C65.6808 81.0334 65.758 80.8498 65.9116 80.7026C66.0652 80.555 66.2584 80.4814 66.4904 80.4814C66.7224 80.4814 66.9156 80.555 67.0692 80.7026C67.2228 80.8498 67.3 81.0334 67.3 81.253C67.3 81.473 67.2228 81.6562 67.0692 81.8038C66.9156 81.951 66.7224 82.025 66.4904 82.025C66.2584 82.025 66.0652 81.951 65.9116 81.8038ZM67.1396 87.8598H65.822V82.6458H67.1396V87.8598Z" fill="white"/>
<path d="M69.9725 83.7282V86.251C69.9725 86.4266 70.0145 86.553 70.0993 86.6318C70.1841 86.7102 70.3265 86.7498 70.5273 86.7498H71.1397V87.8602H70.3109C69.2005 87.8602 68.6457 87.3206 68.6457 86.2414V83.7282H68.0237V82.6458H68.6457V81.3562H69.9725V82.6458H71.1397V83.7282H69.9725Z" fill="white"/>
<path d="M72.18 81.8038C72.026 81.6562 71.9496 81.473 71.9496 81.253C71.9496 81.0334 72.026 80.8498 72.18 80.7026C72.3336 80.555 72.5264 80.4814 72.7584 80.4814C72.9909 80.4814 73.1837 80.555 73.3377 80.7026C73.4913 80.8498 73.5681 81.0334 73.5681 81.253C73.5681 81.473 73.4913 81.6562 73.3377 81.8038C73.1837 81.951 72.9909 82.025 72.7584 82.025C72.5264 82.025 72.3336 81.951 72.18 81.8038ZM73.4081 87.8598H72.0904V82.6458H73.4081V87.8598Z" fill="white"/>
<path d="M79.1021 83.159C79.4849 83.551 79.6765 84.0986 79.6765 84.801V87.8602H78.3585V84.9802C78.3585 84.5662 78.2549 84.2478 78.0481 84.025C77.8409 83.8022 77.5585 83.691 77.2009 83.691C76.8369 83.691 76.5501 83.8022 76.3397 84.025C76.1293 84.2478 76.0245 84.5662 76.0245 84.9802V87.8602H74.7069V82.6462H76.0245V83.2954C76.2001 83.0694 76.4245 82.8922 76.6973 82.7638C76.9705 82.6354 77.2701 82.5706 77.5961 82.5706C78.2177 82.5706 78.7193 82.767 79.1021 83.159Z" fill="white"/>
<path d="M83.996 82.7918C84.2908 82.9458 84.5232 83.145 84.6924 83.3898V82.6462H86.0196V87.8978C86.0196 88.381 85.9224 88.8126 85.728 89.1918C85.5332 89.5714 85.2416 89.8726 84.8524 90.0958C84.4632 90.3182 83.9928 90.4294 83.4408 90.4294C82.7004 90.4294 82.0932 90.257 81.62 89.9118C81.146 89.5666 80.8776 89.0962 80.8148 88.5002H82.1232C82.192 88.7386 82.3412 88.9286 82.5704 89.0698C82.7992 89.211 83.0768 89.2814 83.4032 89.2814C83.786 89.2814 84.0964 89.167 84.3352 88.9382C84.5732 88.709 84.6924 88.3622 84.6924 87.8978V87.0882C84.5232 87.3326 84.2892 87.537 83.9916 87.7002C83.6932 87.8634 83.3528 87.945 82.9704 87.945C82.5308 87.945 82.1296 87.8314 81.7656 87.6054C81.4016 87.3798 81.1144 87.0614 80.9044 86.6502C80.694 86.2394 80.5892 85.7678 80.5892 85.2346C80.5892 84.7074 80.694 84.2394 80.9044 83.8314C81.1144 83.4238 81.4 83.1106 81.7608 82.891C82.1216 82.6714 82.5244 82.5614 82.9704 82.5614C83.3592 82.5614 83.7012 82.6382 83.996 82.7918ZM84.5044 84.4294C84.3788 84.2002 84.2096 84.025 83.996 83.9026C83.7828 83.7802 83.554 83.719 83.3088 83.719C83.0644 83.719 82.8384 83.779 82.6316 83.8978C82.4244 84.017 82.2564 84.1914 82.128 84.4202C81.9992 84.6494 81.9348 84.921 81.9348 85.2346C81.9348 85.5482 81.9992 85.8226 82.128 86.0578C82.2564 86.2934 82.426 86.4734 82.636 86.5986C82.8464 86.7242 83.0704 86.7874 83.3088 86.7874C83.554 86.7874 83.7828 86.7262 83.996 86.6038C84.2096 86.4814 84.3788 86.3058 84.5044 86.077C84.6296 85.8478 84.6924 85.573 84.6924 85.2534C84.6924 84.933 84.6296 84.6586 84.5044 84.4294Z" fill="white"/>
<path d="M172.735 87.0778C172.776 86.9802 172.776 86.8698 172.735 86.7722C172.715 86.7234 172.685 86.679 172.648 86.6422L170.24 84.2334C170.083 84.0774 169.831 84.0774 169.675 84.2334C169.518 84.3898 169.518 84.643 169.675 84.799L171.4 86.525H166.584C165.743 86.525 165.058 85.8398 165.058 84.9978V81.6258C165.058 81.4046 164.878 81.2258 164.658 81.2258C164.436 81.2258 164.258 81.4046 164.258 81.6258V84.9978C164.258 86.281 165.301 87.325 166.584 87.325H171.4L169.675 89.051C169.518 89.2074 169.518 89.4606 169.675 89.6166C169.753 89.6946 169.855 89.7338 169.957 89.7338C170.06 89.7338 170.161 89.6946 170.24 89.6166L172.648 87.2082C172.685 87.171 172.715 87.127 172.735 87.0778Z" fill="white"/>
<path d="M190.759 112.144L184.788 159.132C184.779 166.454 178.961 171.884 171.269 171.9C151.341 171.94 131.024 172.108 111.095 172.109C84.0823 172.109 57.0695 172.119 30.0568 172.101C22.9372 172.095 17.9784 168.259 16.5168 161.674L8.24237 97.4342C8.24517 89.255 13.6544 83.789 21.82 83.7766C42.6828 83.7446 63.5459 83.829 84.4083 83.7166C89.0671 83.6914 92.3931 85.7258 95.1859 89.1186C95.9307 90.1162 97.4883 92.3726 100.119 97.2178C101.346 99.4766 103.421 100.637 105.955 101.024C107.882 101.319 109.81 101.474 111.763 101.472C127.635 101.457 162.107 101.637 177.979 101.677C184.224 101.693 189.482 106.059 190.759 112.144Z" fill="#538AF3"/>
</g>
</g>
<defs>
<linearGradient id="paint0_linear_2_3" x1="101.051" y1="46.8722" x2="101.397" y2="72.429" gradientUnits="userSpaceOnUse">
<stop stop-color="#EF748C"/>
<stop offset="0.5" stop-color="#ED5673"/>
<stop offset="1" stop-color="#EA395B"/>
</linearGradient>
<linearGradient id="paint1_linear_2_3" x1="101.174" y1="60.893" x2="101.296" y2="86.7134" gradientUnits="userSpaceOnUse">
<stop stop-color="#95F884"/>
<stop offset="0.5" stop-color="#89EA78"/>
<stop offset="1" stop-color="#7CDD6B"/>
</linearGradient>
<linearGradient id="paint2_linear_2_3" x1="100.984" y1="72.5838" x2="101.2" y2="97.9845" gradientUnits="userSpaceOnUse">
<stop stop-color="#FDCF74"/>
<stop offset="0.5" stop-color="#FEC85C"/>
<stop offset="1" stop-color="#FFC145"/>
</linearGradient>
<clipPath id="clip0_2_3">
<rect width="200" height="200" fill="white" transform="translate(0.330688 0.916199)"/>
</clipPath>
</defs>
</svg>
